<?xml version="1.0" encoding="utf-8"?>
<!-- Generator: Adobe Illustrator 24.3.0, SVG Export Plug-In . SVG Version: 6.00 Build 0)  -->
<svg version="1.1" id="Layer_1" xmlns="http://www.w3.org/2000/svg" xmlns:xlink="http://www.w3.org/1999/xlink" x="0px" y="0px"
	 viewBox="0 0 1080 1080" style="enable-background:new 0 0 1080 1080;" xml:space="preserve">
<style type="text/css">
	.st0{fill:#FFFFFF;stroke:#FFFFFF;stroke-miterlimit:10;}
	.st1{fill:none;stroke:#FFFFFF;stroke-width:40;stroke-miterlimit:10;}
	.st2{fill:#FFFFFF;stroke:#F1F2F2;stroke-miterlimit:10;}
</style>
<circle class="st0" cx="396.32" cy="568.08" r="42.45"/>
<circle class="st1" cx="491.14" cy="476.1" r="20.28"/>
<circle class="st0" cx="536.3" cy="595.32" r="24.88"/>
<circle class="st0" cx="636.42" cy="740.25" r="37.26"/>
<circle class="st0" cx="422.5" cy="714.07" r="26.18"/>
<circle class="st0" cx="706.7" cy="433.17" r="22.64"/>
<circle class="st0" cx="665.31" cy="331.87" r="28.89"/>
<path class="st1" d="M568.97,286c-11.94-21.11-118.23-5.17-198.11,50.94c-101.55,71.33-126.5,183.73-128.3,192.45
	c-23,111.52,19.34,224.19,96.23,294.34c16.72,15.26,76.9,68.57,171.7,77.36c100.56,9.32,172.77-37.7,192.45-50.94
	c18.56-12.49,87.32-61.74,118.87-156.6c20.3-61.06,30.27-126,13.21-133.96c-9.6-4.48-20.26,12.46-45.28,9.43
	c-18.96-2.29-33.51-14.52-35.94-16.61c-12.38-10.66-10.2-16.47-18.78-21.13c-15.08-8.18-28.54,6.1-54.72,9.43
	c-3.73,0.48-42.51,4.87-67.92-18.87c-26.9-25.12-22.96-66.9-22.64-69.81c3.29-30.3,21.79-45.55,13.21-58.49
	c-7.14-10.76-23.17-5.12-32.08-18.87c-4.15-6.4-4.02-13.7-3.77-28.3c0.29-17.13,3.81-21.93,3.77-39.62
	C570.83,295.1,570.81,289.27,568.97,286z"/>
<g>
	<path class="st2" d="M802.13,350.29c-7.15-5.45-3.34-24.01,3.77-35.85c10.43-17.36,33.2-28.97,41.51-22.64
		c7.15,5.45,3.34,24.01-3.77,35.85C833.21,345.02,810.44,356.63,802.13,350.29z"/>
	<path class="st2" d="M802.13,408.36c-7.15-5.45-3.34-24.01,3.77-35.85c10.43-17.36,33.2-28.97,41.51-22.64
		c7.15,5.45,3.34,24.01-3.77,35.85C833.21,403.09,810.44,414.7,802.13,408.36z"/>
	<path class="st2" d="M802.89,465.39c-7.15-5.45-3.34-24.01,3.77-35.85c10.43-17.36,33.2-28.97,41.51-22.64
		c7.15,5.45,3.34,24.01-3.77,35.85C833.97,460.11,811.2,471.72,802.89,465.39z"/>
	<path class="st2" d="M790.28,351.38c6.62-5.45,3.09-24.01-3.49-35.85c-9.66-17.36-30.74-28.97-38.43-22.64
		c-6.62,5.45-3.09,24.01,3.49,35.85C761.51,346.1,782.59,357.71,790.28,351.38z"/>
	<path class="st2" d="M790.28,406.36c6.62-5.45,3.09-24.01-3.49-35.85c-9.66-17.36-30.74-28.97-38.43-22.64
		c-6.62,5.45-3.09,24.01,3.49,35.85C761.51,401.09,782.59,412.7,790.28,406.36z"/>
	<path class="st2" d="M792.53,465.39c6.62-5.45,3.09-24.01-3.49-35.85c-9.66-17.36-30.74-28.97-38.43-22.64
		c-6.62,5.45-3.09,24.01,3.49,35.85C763.75,460.11,784.83,471.72,792.53,465.39z"/>
	<path class="st2" d="M800.25,223.88c-10.03-0.31-21.2,23.06-20.75,43.4c0.37,16.73,8.73,37.36,18.87,37.74
		c8.52,0.32,15.99-13.74,18.87-22.64C825.5,256.81,811.92,224.24,800.25,223.88z"/>
	<line class="st2" x1="799.62" y1="477.92" x2="799.62" y2="535.2"/>
</g>
</svg>
